# File created by Blade
# Date/Time:  Tue Apr 07 21:12:38 2015
# Frame Rate: 120.000 fps
#------------------------------------------------------
:FULLY-SPECIFIED
:DEGREES
1501
root 0.022095 25.550165 8.712015 728.212763 -74.164563 -465.197084
Spine -71.567220 -22.472358 6.052580
Head -88.177525 9.935643 8.741566
LeftShoulder 163.019559 179.415604 221.228372
LeftArm 176.724395 -27.741252 -145.157710
LeftForeArm 46.806441 -0.000000 116.718363
LeftHand -9.483779 -0.000000 -6.424621
LeftHandThumb1 -26.253704 0.000000 33.147579
RightShoulder -27.268768 60.634037 -59.655374
RightArm 101.047247 60.208251 103.109356
RightForeArm -30.738855 -0.000000 125.571323
RightHand -7.762823 0.000000 9.352033
RightHandThumb1 -24.326973 -0.000000 -32.862282
LeftUpLeg 18.294225 -0.931416 23.662032
LeftLeg 76.084738 -0.000000 -0.000000
LeftFoot 38.865014 1.949313 26.093815
LeftToeBase 119.304697 -0.000000 -0.000000
RightUpLeg -95.346630 -25.714383 0.619813
RightLeg 35.511952 -0.000000 -0.000000
RightFoot 37.271339 -7.424912 6.916127
RightToeBase 28.483146 -0.000000 -0.000000
1502
root 0.211435 25.658038 8.750504 726.982775 -74.372071 -465.087104
Spine -71.062497 -22.328475 5.787390
Head -88.039299 9.913376 8.662553
LeftShoulder 163.089497 179.458703 221.262742
LeftArm 176.367200 -28.085393 -145.103671
LeftForeArm 46.132040 -0.000000 116.819999
LeftHand -9.719520 -0.000000 -6.910635
LeftHandThumb1 -26.253704 0.000000 33.147579
RightShoulder -27.975738 60.898923 -60.525907
RightArm 99.200591 60.022286 102.347000
RightForeArm -30.469290 0.000000 125.893949
RightHand -7.929323 -0.000000 9.711607
RightHandThumb1 -24.326973 -0.000000 -32.862282
LeftUpLeg 18.705669 -1.391634 23.501569
LeftLeg 73.627170 -0.000000 -0.000000
LeftFoot 39.637113 -2.139824 21.052248
LeftToeBase 119.022779 -0.000000 -0.000000
RightUpLeg -96.429017 -26.062915 1.169329
RightLeg 34.085810 -0.000000 -0.000000
RightFoot 37.596425 -7.374671 6.906735
RightToeBase 28.899771 -0.000000 -0.000000
1503
root 0.401888 25.755091 8.796480 725.651519 -74.531678 -464.836079
Spine -70.577724 -22.208234 5.511469
Head -87.940657 9.852274 8.659634
LeftShoulder 163.069509 179.499685 221.273871
LeftArm 175.882283 -28.587336 -144.919136
LeftForeArm 47.194091 0.000000 116.748373
LeftHand -9.832463 -0.000000 -5.906779
LeftHandThumb1 -26.253704 0.000000 33.147579
RightShoulder -28.612595 61.145843 -61.260204
RightArm 97.469551 59.747631 101.507050
RightForeArm -30.552182 -0.000000 126.086152
RightHand -7.951554 -0.000000 9.759186
RightHandThumb1 -24.326973 -0.000000 -32.862282
LeftUpLeg 19.101987 -1.397944 23.390553
LeftLeg 70.876739 -0.000000 -0.000000
LeftFoot 39.201637 -8.027376 20.867586
LeftToeBase 117.215484 -0.000000 -0.000000
RightUpLeg -97.542822 -26.420859 1.716232
RightLeg 32.696607 -0.000000 -0.000000
RightFoot 37.979777 -7.190867 6.696155
RightToeBase 28.895168 -0.000000 -0.000000
1504
root 0.598658 25.827915 8.843290 724.452760 -74.575375 -464.414133
Spine -70.446729 -22.127730 5.327653
Head -87.683891 9.749451 8.527444
LeftShoulder 163.327611 179.553728 221.382321
LeftArm 175.947135 -28.780639 -145.431398
LeftForeArm 45.618084 0.000000 116.833213
LeftHand -9.311444 -0.000000 -7.633021
LeftHandThumb1 -26.253704 0.000000 33.147579
RightShoulder -29.018603 61.316872 -61.806206
RightArm 96.101273 59.475238 100.894404
RightForeArm -30.480470 -0.000000 126.208768
RightHand -7.945460 -0.000000 9.922958
RightHandThumb1 -24.326973 -0.000000 -32.862282
LeftUpLeg 19.039859 -1.057662 23.322971
LeftLeg 68.226049 -0.000000 -0.000000
LeftFoot 38.883068 -8.566475 21.684037
LeftToeBase 115.718566 -0.000000 -0.000000
RightUpLeg -98.913757 -26.825151 2.341920
RightLeg 31.279816 -0.000000 -0.000000
RightFoot 38.335107 -6.949291 6.412684
RightToeBase 28.719349 -0.000000 -0.000000
1505
root 0.783553 25.899559 8.884363 723.611673 -74.557201 -464.505246
Spine -70.120196 -22.142136 5.208857
Head -87.634718 9.725604 8.424732
LeftShoulder 163.498524 179.629564 221.410555
LeftArm 175.836719 -29.109775 -145.607320
LeftForeArm 44.683053 -0.000000 116.820560
LeftHand -9.020814 -0.000000 -7.873977
LeftHandThumb1 -26.253704 0.000000 33.147579
RightShoulder -29.412177 61.670871 -62.238088
RightArm 94.531966 59.183567 99.926503
RightForeArm -30.402498 -0.000000 126.295919
RightHand -7.964363 -0.000000 10.055729
RightHandThumb1 -24.326973 -0.000000 -32.862282
LeftUpLeg 19.176907 -0.930689 23.389760
LeftLeg 65.228903 -0.000000 -0.000000
LeftFoot 40.039549 -3.752700 20.177950
LeftToeBase 117.001272 -0.000000 -0.000000
RightUpLeg -100.103255 -27.210518 2.934918
RightLeg 29.997009 -0.000000 -0.000000
RightFoot 38.423381 -6.787213 6.201574
RightToeBase 29.094070 -0.000000 -0.000000
